solid STL generated by MeshLab
  facet normal  0.000000e+00  0.000000e+00  1.000000e+00
    outer loop
      vertex   3.090170e+00 -5.000000e+00 -2.507698e+00
      vertex  -3.090170e+00  5.000000e+00 -2.507698e+00
      vertex  -3.090170e+00 -5.000000e+00 -2.507698e+00
    endloop
  endfacet
  facet normal -0.000000e+00  0.000000e+00  1.000000e+00
    outer loop
      vertex  -3.090170e+00  5.000000e+00 -2.507698e+00
      vertex   3.090170e+00 -5.000000e+00 -2.507698e+00
      vertex   3.090170e+00  5.000000e+00 -2.507698e+00
    endloop
  endfacet
  facet normal  0.000000e+00  0.000000e+00  1.000000e+00
    outer loop
      vertex   3.090170e+00 -5.000000e+00  2.507698e+00
      vertex  -3.090170e+00  5.000000e+00  2.507698e+00
      vertex  -3.090170e+00 -5.000000e+00  2.507698e+00
    endloop
  endfacet
  facet normal -0.000000e+00  0.000000e+00  1.000000e+00
    outer loop
      vertex  -3.090170e+00  5.000000e+00  2.507698e+00
      vertex   3.090170e+00 -5.000000e+00  2.507698e+00
      vertex   3.090170e+00  5.000000e+00  2.507698e+00
    endloop
  endfacet
  facet normal  0.000000e+00  1.000000e+00  0.000000e+00
    outer loop
      vertex  -3.090170e+00  5.000000e+00  2.507698e+00
      vertex   3.090170e+00  5.000000e+00 -2.507698e+00
      vertex  -3.090170e+00  5.000000e+00 -2.507698e+00
    endloop
  endfacet
  facet normal  0.000000e+00  1.000000e+00 -0.000000e+00
    outer loop
      vertex   3.090170e+00  5.000000e+00 -2.507698e+00
      vertex  -3.090170e+00  5.000000e+00  2.507698e+00
      vertex   3.090170e+00  5.000000e+00  2.507698e+00
    endloop
  endfacet
  facet normal  1.000000e+00  0.000000e+00  0.000000e+00
    outer loop
      vertex   3.090170e+00  5.000000e+00 -2.507698e+00
      vertex   3.090170e+00 -5.000000e+00  2.507698e+00
      vertex   3.090170e+00 -5.000000e+00 -2.507698e+00
    endloop
  endfacet
  facet normal  1.000000e+00 -0.000000e+00  0.000000e+00
    outer loop
      vertex   3.090170e+00 -5.000000e+00  2.507698e+00
      vertex   3.090170e+00  5.000000e+00 -2.507698e+00
      vertex   3.090170e+00  5.000000e+00  2.507698e+00
    endloop
  endfacet
  facet normal  0.000000e+00 -1.000000e+00 -0.000000e+00
    outer loop
      vertex   3.090170e+00 -5.000000e+00  2.507698e+00
      vertex  -3.090170e+00 -5.000000e+00 -2.507698e+00
      vertex   3.090170e+00 -5.000000e+00 -2.507698e+00
    endloop
  endfacet
  facet normal  0.000000e+00 -1.000000e+00  0.000000e+00
    outer loop
      vertex  -3.090170e+00 -5.000000e+00 -2.507698e+00
      vertex   3.090170e+00 -5.000000e+00  2.507698e+00
      vertex  -3.090170e+00 -5.000000e+00  2.507698e+00
    endloop
  endfacet
  facet normal -1.000000e+00 -0.000000e+00  0.000000e+00
    outer loop
      vertex  -3.090170e+00  5.000000e+00  2.507698e+00
      vertex  -3.090170e+00 -5.000000e+00 -2.507698e+00
      vertex  -3.090170e+00 -5.000000e+00  2.507698e+00
    endloop
  endfacet
  facet normal -1.000000e+00  0.000000e+00  0.000000e+00
    outer loop
      vertex  -3.090170e+00 -5.000000e+00 -2.507698e+00
      vertex  -3.090170e+00  5.000000e+00  2.507698e+00
      vertex  -3.090170e+00  5.000000e+00 -2.507698e+00
    endloop
  endfacet
endsolid vcg
